<?xml version="1.0" encoding="utf-8"?>
<!-- Generator: Adobe Illustrator 26.1.0, SVG Export Plug-In . SVG Version: 6.00 Build 0)  -->
<svg version="1.1" id="Camada_1" xmlns="http://www.w3.org/2000/svg" xmlns:xlink="http://www.w3.org/1999/xlink" x="0px" y="0px"
	 viewBox="0 0 725 193" style="enable-background:new 0 0 725 193;" xml:space="preserve">
<g>
	<path d="M38.4,104.6c2.3,0,4.8-0.3,7.2-0.9c15.6-3.6,26.8-20,24.5-35.8c0-0.1,0-0.4-0.1-0.7c-0.1-1-0.2-1.7-0.2-2.3
		c4.9,2.9,10.9,4.5,16.3,4.3c6.1-0.2,11.8-2.9,16-7.6c4.3-4.8,6.5-11.1,6-17.5c-0.7-9.8-6.4-18-11.1-23.1C95.7,19.6,78,4.5,75,4.9
		c-0.3,0-0.6,0.2-0.7,0.5c-6.9,13.4-8.9,17.1-9.4,18.2l-0.2,0.3l0,0c-0.1,0.2-0.1,0.2-0.1,0.2V27l0.9-2.1c2,1.1,9.3,5.4,10,5.9
		c4.1,2.8,7,5.4,9.2,8.3c2.5,3.2,4,6.8,4.4,10.2c0.4,3.2-0.6,5.5-2.6,6.6c-3.1,1.6-8.2,0.4-11.6-2.7c-3.7-3.4-5.8-8-7.3-12.2
		c-0.1-0.2-0.3-0.7-0.6-1.4c-0.7-1.5-2.5-5.5-2.5-6.2c0,0,0,0.1-0.1,0.2L64,33.3l0,0l0,0l-0.5-0.4L47.1,52.8l0.5,0.5
		c5.6,5.8,12.7,13.1,9.7,21.5c-1.2,3.2-3.1,5.5-5.9,6.8c-3.4,1.6-7.7,1.5-12.1-0.2c-16.1-6.1-21.9-24.6-18.2-39
		c2.8-10.6,11.4-21.8,18.8-28.1c2.4-2.1,3.1-3,2.6-3.7c-1.3-1.8-14.4,6.5-14.6,6.6c-12,7.8-20,19-22.6,31.6
		C1.7,65.1,7.4,85.4,18.3,96.1C24,101.8,30.9,104.6,38.4,104.6z"/>
	<path d="M140.2,76.1c-7.7-5.6-16.8-7.3-25-4.5c-4.6,1.5-8.9,3.8-13.1,6c-3,1.6-6,3.2-9.1,4.5c0-0.2,0.1-0.3,0.1-0.5
		c0.2-1.3,0.5-2.7,0.6-4.1l0-0.1c0.2-1.9,0.4-4.2-0.8-6c-0.4-0.6-0.9-1-1.5-1.1c-0.5-0.1-1.1,0-1.6,0.2l-0.1,0.1
		c-0.4,0.3-0.9,0.6-1.4,1c-0.5,0.3-1.1,0.7-1.6,1.1c-1,0.8-2,1.5-3,2.3c-2.4,1.7-4.9,3.5-8,5.6c-0.5,0.3-0.9,0.6-1.4,0.9
		c-0.8,0.5-1.7,1.1-2.5,1.7c-0.2,0.2-0.6,0.4-0.9,0.5c-0.7,0.4-1.5,0.9-2,1.6c-0.2,0.4-0.4,0.9-0.4,1.2c-5.2,28-11.1,59.8-36.6,81.2
		c-10.8,9-16.5,13-17.5,13c0,0,0.1,0,0.2,0.1l-0.7,1l0,0c3.3,2.5,6.9,3.5,10.5,3.5c11.2,0,22.8-9.6,26.8-13.3
		c10.9-10,18.5-23.1,23.9-33.4c7.2-13.8,12.5-28.2,15.6-43c0.2,0.2,0.4,0.4,0.6,0.5c4.7,3.7,12.1,5,18.5,3.3
		c4.6-1.2,8.7-3.6,12.6-5.9c1.1-0.6,2.1-1.2,3.2-1.9c4.1-2.3,8.4-2.6,11.6-0.9c1.4,0.8,2.6,1.7,3.4,2.9c4.7,6.2,0.8,15.4-1.1,19.1
		c-4.1,7.8-11.5,12.9-19.9,13.5c-7.2,0.5-15-2.5-19.3-7.5c-3.3-3.8-4.4-8.5-3.3-13.5c0-0.1,0.1-0.4,0.2-0.7c0.4-1.1,0.7-1.8,0.5-2.2
		c-0.4-1.1-0.9-1.7-1.7-1.8c-1.4-0.2-2.8,1.7-2.9,1.9c-5.6,8.1-7.8,15.1-7,22.7c0.8,8.2,5.6,15.4,13.1,20c8.4,5.1,18.6,6,27.3,2.5
		c13.4-5.3,20.5-19.9,22.9-25.9c3.7-9.2,5-17.1,4-24.1C152.3,89.2,147.5,81.4,140.2,76.1z"/>
	<path d="M159.6,59.6c-18.5,0.8-34.6-9.4-41-25.8c-0.1-0.3-0.2-0.6-0.3-1c-0.6-1.7-1.1-3.1-1.9-3.7l-0.8-0.6l-0.2,0.9
		c-1.6,7.7,2.5,17.3,7.2,23.3c6.3,8,18.6,15.8,30.1,15.8c1.1,0,2.1-0.1,3.1-0.2c3.4-0.4,5.9-3.4,5.7-6.7
		C161.6,61.2,161.5,59.8,159.6,59.6z"/>
	<path d="M151,52.9c0.3,0.1,0.6,0.1,0.8,0.1c0.9,0,1.8-0.3,2.5-0.8c1-0.7,1.6-1.7,1.9-2.9c0.2-1.2,0-2.4-0.7-3.3s-1.7-1.6-2.9-1.9
		c-2.4-0.5-4.8,1.1-5.2,3.6C147,50.1,148.6,52.4,151,52.9z"/>
	<path d="M136.1,40.9c0.4,0.1,0.8,0.1,1.2,0.1c1.3,0,2.6-0.4,3.8-1.2c1.5-1,2.5-2.5,2.8-4.3c0.3-1.8,0-3.5-1.1-5
		c-1-1.5-2.5-2.5-4.3-2.8c-1.8-0.3-3.5,0-5,1.1c-1.5,1-2.5,2.5-2.8,4.3c-0.3,1.8,0,3.5,1.1,5C132.8,39.6,134.3,40.6,136.1,40.9z"/>
	<rect x="192.8" y="12.8" width="6" height="164.5"/>
	<polygon points="278.5,37.4 272.3,58.1 265.4,37.3 255.4,37.3 248.5,58.1 242.3,37.4 229.9,37.4 243,77 253,77 260.2,56.3 
		267.5,77 277.6,77 290.7,37.4 	"/>
	<path d="M317,76.7h12.6L313,37.5l-0.1-0.4h-11l-16.7,39.6h12.4l2.7-6.8h13.9L317,76.7z M310.7,60.5h-6.8l3.4-8.6L310.7,60.5z"/>
	<polygon points="343.6,37.4 331.8,37.4 331.8,76.7 362,76.7 362,66.3 343.6,66.3 	"/>
	<path d="M423.4,37.5l-0.1-0.4h-11l-16.7,39.5V66.3h-18.5V37.4h-11.8v39.3h30.2h0h12.4l2.7-6.8h13.9l2.8,6.8h12.6L423.4,37.5z
		 M421,60.5h-6.8l3.4-8.6L421,60.5z"/>
	<path d="M476.3,68.1l-8.9-6.3l-0.3,0.4c-2.2,2.6-4.4,4.4-8.1,4.4c-4.9,0-8.5-4-8.5-9.7c0-5.4,3.7-9.5,8.5-9.5
		c3.1,0,5.5,1.3,7.9,4.2l0.4,0.5l8.9-6.9l-0.3-0.5c-4-5.5-9.4-8.2-16.7-8.2c-11.8,0-20.7,8.8-20.7,20.4v0.1
		c0,11.4,8.9,20.3,20.2,20.3c7.6,0,12.9-2.7,17.4-8.9L476.3,68.1z"/>
	<polygon points="511.5,66.5 491,66.5 491,61.7 509.3,61.7 509.3,52.2 491,52.2 491,47.6 511.2,47.6 511.2,37.4 479.4,37.4 
		479.4,76.7 511.5,76.7 	"/>
	<path d="M564.1,51.4c0-8.6-6.3-14-16.4-14h-16.9v39.3h11.8V65.8h4.6C557.6,65.8,564.1,60.3,564.1,51.4z M552.4,52
		c0,2.7-2.1,4.4-5.5,4.4h-4.4v-8.9h4.4C548.9,47.5,552.4,48.1,552.4,52z"/>
	<path d="M587.9,37.1h-11l-16.7,39.6h12.4l2.7-6.8h13.9l2.8,6.8h12.6l-16.6-39.2L587.9,37.1z M585.8,60.5H579l3.4-8.6L585.8,60.5z"
		/>
	<path d="M641.6,59.1V37.4h-11.9v22c0,4.7-2.2,7.2-6.4,7.2c-4.1,0-6.4-2.7-6.4-7.5V37.4h-11.9v22c0,11.6,6.5,18,18.2,18
		C635,77.4,641.6,70.9,641.6,59.1z"/>
	<polygon points="658.4,37.4 646.6,37.4 646.6,76.7 676.9,76.7 676.9,66.3 658.4,66.3 	"/>
	<path d="M718.9,57c0-11.4-9.2-20.3-21.1-20.3c-11.9,0-21.2,9-21.2,20.4v0.1c0,11.4,9.2,20.3,21.1,20.3
		C709.6,77.5,718.9,68.5,718.9,57z M688.7,57c0-5.5,3.9-9.6,9-9.6c5.2,0,9.2,4.3,9.2,9.7v0.1c0,5.5-3.9,9.6-9.1,9.6
		C692.7,66.8,688.7,62.5,688.7,57z"/>
	<path d="M245.5,113.1h-15.4v39.5h15.2c13.4,0,22.5-8,22.5-20C267.7,120.8,259,113.1,245.5,113.1z M255.6,132.9
		c0,5.7-3.7,9.1-10,9.1h-3.7v-18.3h3.7C251.8,123.7,255.6,127.2,255.6,132.9z"/>
	<polygon points="312.2,137.5 330.6,137.5 330.6,128 312.2,128 312.2,123.3 332.5,123.3 332.5,113.1 300.5,113.1 300.5,152.7 
		332.8,152.7 332.8,142.4 312.2,142.4 	"/>
	<path d="M382.5,127.6c-5.6-1.3-6.2-2-6.2-3.3c0-1.1,1.2-1.9,3.2-1.9c3.3,0,7,1.3,10.4,3.7l0.5,0.3l6-8.5l-0.4-0.4
		c-4.4-3.5-9.7-5.2-16.1-5.2c-9.2,0-15.4,5.2-15.4,13c0,8.5,7.1,10.8,14.9,12.6c5.1,1.2,6,2,6,3.2c0,1.8-2.4,2-3.8,2
		c-4.3,0-8.3-1.5-12.1-4.5l-0.5-0.4l-6.7,8l0.4,0.4c4.7,4.2,11.2,6.5,18.4,6.5c9.8,0,16.1-5.1,16.1-13.2
		C397.3,131.9,390.2,129.3,382.5,127.6z"/>
	<rect x="429.9" y="113.1" width="11.9" height="39.5"/>
	<path d="M494.7,138h7.6v3.7c-1.5,0.9-3.3,1.3-5.5,1.3c-5.8,0-9.8-4.1-9.8-10.1c0-5.6,4-9.9,9.2-9.9c3.3,0,6,1,8.9,3.5l0.5,0.4
		l7-8.4l-0.4-0.4c-4.5-3.9-9.6-5.7-16-5.7c-12.1,0-21.2,8.8-21.2,20.5v0.1c0,11.8,9,20.4,21.5,20.4c8,0,13.7-3.3,17-6l0.2-0.2v-18.1
		h-18.8L494.7,138L494.7,138z"/>
	<polygon points="572.4,132.2 557.5,113.1 546.7,113.1 546.7,152.7 558.4,152.7 558.4,132.8 573.9,152.7 584.1,152.7 584.1,113.1 
		572.4,113.1 	"/>
	<polygon points="629.9,137.5 648.3,137.5 648.3,128 629.9,128 629.9,123.3 650.2,123.3 650.2,113.1 618.2,113.1 618.2,152.7 
		650.5,152.7 650.5,142.4 629.9,142.4 	"/>
	<path d="M710.8,138.9c4.9-2.3,7.6-6.6,7.6-12.1c0-3.9-1.2-7-3.6-9.4c-2.8-2.9-7.2-4.3-12.9-4.3h-18.7v39.5H695v-11.6h3.7l7.7,11.6
		h13.7L710.8,138.9z M706.5,127.6c0,2.5-1.9,4-5.1,4H695v-8h6.4C703.7,123.5,706.5,124.2,706.5,127.6z"/>
</g>
</svg>
