<svg xmlns="http://www.w3.org/2000/svg" viewBox="0 0 440.49 499.37"><defs><style>.cls-1{fill:#010202;}</style></defs><g id="Camada_2" data-name="Camada 2"><g id="Camada_1-2" data-name="Camada 1"><path class="cls-1" d="M113.87,272.47c41.74-9.61,73.41-54.31,67-98-.21-1.42-.86-11.58-1.91-12.28a84.61,84.61,0,0,0,48.15,13.85c35.44-1.24,62.34-33,59.76-68-1.77-24-14.68-46-30.49-63.49C251.44,39.13,198.5-5.15,195.58.5L168.91,52.05c.2-.47,27.49,15.62,29.76,17.17,9.69,6.62,18.91,14.16,26.07,23.53,6.55,8.56,11.3,18.67,12.52,29.37,3.18,27.94-27.17,26.14-42.43,12.26-10.1-9.19-16.18-22-20.94-34.58-.91-2.4-9.9-20.75-8.54-22.39L120.5,131.87c15.62,16.12,36.31,37.3,27.59,61.85-8.37,23.55-31.5,27.33-52.42,19.37C52.34,196.61,32.6,145.76,43.79,102.47c7.39-28.58,30.75-60.24,52.86-79.22,21.46-18.43-11.73-2-31.57,10.88C33.93,54.4,10.31,84.34,2.66,121.08-11.31,188.17,30.32,291.7,113.87,272.47Z"/><path class="cls-1" d="M290.85,196.42c-18.13,15.26-25.63,35.33-29.38,58,0,0-2,11.82,6.71,7.48,1.13-.57,2.77-5.59,3.45-6.72,20.17-33.53,65.76-24.2,88.66,1.45,16.66,18.65,21.21,43.71,14.15,67.27-5.15,17.17-16.47,38.46-36.07,41.56a31.37,31.37,0,0,1-13.28-.89c-11.86-3.32-19.32-14.11-22.75-25.38-4.78-15.72-8.06-31.56-16.6-45.86s-25.29-26.86-42.23-28.56a33.34,33.34,0,0,0-8.64.26,436.57,436.57,0,0,0,8.79-45.79c.85-6.27,2.29-12.45,2.85-18.75.46-5.22,1.12-11.55-1.8-16.22a5.05,5.05,0,0,0-3-2.36,5.28,5.28,0,0,0-3.41.54c-2.65,2.06-5.85,3.54-8.54,5.65s-5.51,4.3-8.34,6.36c-7.4,5.38-14.9,10.62-22.44,15.79-3.6,2.47-7.35,4.8-10.86,7.4-2.35,1.74-6,3-7.5,5.62a8.36,8.36,0,0,0-.94,2.76C164,310.73,146.82,395,77,453.34,72.34,457.22,30,492.5,26.77,490c32.54,24.78,77.49-4.93,101.75-27.27,28.23-26,48.62-59.09,66.34-92.8a471.64,471.64,0,0,0,29.65-69.3c7.13,18.92,11.87,38.82,21.23,56.84,11.5,22.17,33.19,35,57.66,38.46,23.26,3.27,48.18-2.18,66.89-16.69,18-14,29.83-34.58,38.3-55.4,11.71-28.79,17.5-65.57,4.24-94.87C392.3,183.57,330.24,163.26,290.85,196.42Z"/><path class="cls-1" d="M439,164.56a177.4,177.4,0,0,0-25.42-4.95c-41.18-5.8-78.82-36.56-95.9-78.36-.29-.7-.62-1.62-1-2.59-1.7-4.72-3.18-8.45-5.38-10.1a2,2,0,0,0-1.22-.41,2,2,0,0,0-.72.13,2,2,0,0,0-1.27,1.49c-4.33,21,7.24,47,20.63,63.41,9.19,11.29,22,21.65,36,29.18C380.17,170.61,396,175,410.61,175a62.42,62.42,0,0,0,28.78-6.66,2,2,0,0,0-.38-3.76Z"/><path class="cls-1" d="M406.2,126.87a9.62,9.62,0,1,0-7.67-11.24A9.63,9.63,0,0,0,406.2,126.87Z"/><circle class="cls-1" cx="371.79" cy="82.21" r="15.14" transform="matrix(0.54, -0.84, 0.84, 0.54, 101.26, 350.16)"/></g></g></svg>